<svg width="198" height="256" viewBox="0 0 198 256" fill="none" xmlns="http://www.w3.org/2000/svg">
<path d="M97.6153 89.1016C103.842 89.1902 106.649 99.001 109.122 103.83C130.503 145.587 183.345 192.849 139.212 239.189C129.67 249.205 113.508 255.793 99.773 256C92.9718 256.006 86.2154 254.898 79.7718 252.722C51.3207 243.309 33.3244 210.832 43.4365 181.98C53.5966 152.992 74.3322 129.939 88.2241 102.901C90.9255 97.6433 91.9781 91.887 97.6153 89.1016Z" fill="#003149"/>
<path d="M68.1056 191.862C75.0121 192.351 73.6354 197.342 74.9037 202.976C75.329 204.885 76.0268 206.724 76.9754 208.435C80.4397 214.617 85.8564 219.204 92.8928 220.722C96.2582 221.476 102.827 221.42 104.305 225.328C105.852 229.415 102.912 232.349 99.6011 233.755C82.5609 233.812 67.3374 222.163 63.6673 205.462C62.5183 200.233 61.2568 193.327 68.1056 191.862Z" fill="#D9FCFE"/>
<path d="M93.1574 0.292318C119.623 -2.02222 149.084 9.60746 167.689 28.0978C185.932 46.2274 196.304 69.9662 197.006 95.6935C197.723 122.057 188.231 146.423 170.458 165.831C167.32 169.236 163.186 171.304 159.431 167.41C158.485 166.429 157.455 163.437 158.272 162.324C166.02 151.799 174.67 142.313 179.271 129.675C182.233 121.384 184.566 111.24 185.024 102.544C185.991 84.159 179.816 63.5542 169.302 48.5473C154.583 27.537 130.365 13.9998 104.86 12.3165C101.364 12.1196 97.9956 12.067 94.5009 12.2135C57.2164 13.7791 25.0542 39.2706 15.2506 75.306C8.50574 99.9249 12.9334 126.263 27.3573 147.325C30.4493 151.757 36.5804 157.669 38.9868 162.4C39.2899 163.852 38.7964 166.304 37.8265 167.302C31.5671 173.743 25.5369 164.807 21.9115 160.396C9.26301 144.792 1.7089 125.683 0.269231 105.65C-1.11344 84.7899 2.7596 66.6954 13.51 48.5291C30.7791 19.3472 59.2085 2.3667 93.1574 0.292318Z" fill="#FFB300"/>
<path d="M91.9907 30.0333C106.846 28.8688 120.719 31.6649 133.6 39.3306C149.315 48.693 160.621 63.9608 164.993 81.7203C169.568 100.15 166.098 120.012 155.757 135.911C151.984 141.715 149.444 144.559 142.945 140.038C140.377 133.559 143.969 132.21 147.073 126.897C150.884 120.377 153.549 113.632 154.539 106.107C156.553 90.8119 152.488 76.0332 143.205 63.7898C133.343 51.0739 120.487 44.0498 104.545 42.2325C94.6426 41.6194 85.4456 42.2287 76.2956 46.2626C61.8454 52.6329 51.0026 64.0819 45.5327 78.8922C39.5526 95.084 41.2472 109.827 48.9078 124.984C50.515 128.163 53.1882 130.904 54.6135 134.157C55.6009 136.411 54.7773 137.969 53.9123 140.08C52.8757 140.842 50.6146 142.478 49.4533 142.508C44.9401 142.625 41.8137 136.6 39.9848 133.649C34.3629 124.731 31.5287 114.726 30.41 104.326C26.4575 67.5832 54.7469 33.0532 91.9907 30.0333Z" fill="#FFB300"/>
<path d="M95.4048 59.7778C101.422 59.2643 108.8 60.2897 114.201 62.6813C129.325 69.3782 139.485 86.2168 136.892 102.776C136.118 107.733 134.634 113.935 128.22 112.914C121.565 111.855 123.895 106.095 124.612 101.499C126.62 86.4441 116.767 74.0292 101.935 71.5872C98.7185 71.3711 95.4847 71.3201 92.3344 72.0913C88.4329 73.0466 84.7152 75.115 81.5512 77.5545C65.7051 89.7729 75.8047 105.87 72.558 110.665C71.6448 112.014 70.0354 112.777 68.4608 113.017C66.7875 113.273 65.2043 112.887 63.895 111.801C61.0707 109.457 60.2358 104.783 59.9129 101.299C58.9718 91.1481 62.5139 80.7852 69.0442 72.999C75.7051 65.0566 85.1928 60.6385 95.4048 59.7778Z" fill="#FFB300"/>
</svg>
